<svg width="57" height="132" viewBox="0 0 57 132" fill="none" xmlns="http://www.w3.org/2000/svg">
<path d="M44.0723 36.651L47.3234 33.0176L50.7165 35.2422L46.6745 39.7962L44.0723 36.651Z" fill="#C4C4C4"/>
<path d="M53.2041 29.0626C54.3193 31.0502 53.7043 33.6096 51.8252 34.7882C49.9462 35.9668 47.5129 35.3043 46.3976 33.3167C45.2824 31.3291 45.8974 28.7697 47.7765 27.5911C49.6555 26.4195 52.0821 27.082 53.2041 29.0626Z" fill="#C4C4C4"/>
<path d="M55.1711 23.045C55.5023 23.3867 55.5091 23.9446 55.1914 24.2933L47.9794 32.139C47.6617 32.4877 47.1277 32.4947 46.7965 32.1529C46.4653 31.8182 46.4586 31.2533 46.7763 30.9046L53.9883 23.0589C54.306 22.7102 54.8399 22.7032 55.1711 23.045Z" fill="#C4C4C4"/>
<path d="M22.4992 31.3574L37.2071 44.2383L45.1965 34.5306L48.6234 38.9381L39.1876 52.879C38.39 53.8624 36.9706 53.953 36.0648 53.0743L22.3438 44.7544L22.4992 31.3574Z" fill="#C4C4C4"/>
<path d="M39.8367 91.4445C39.8367 91.4445 16.0174 109.305 6.43968 120.296L3.5332 117.506L11.5969 107.492C11.5969 107.492 15.2604 98.6625 23.0469 95.7544L33.8481 82.2598L39.8367 91.4445Z" fill="#C4C4C4"/>
<path d="M3.53884 115.548C3.85652 115.367 4.21475 115.527 4.24855 115.876C4.31614 116.552 4.61357 117.577 5.668 118.386C6.76298 119.23 7.68224 118.972 8.20945 118.672C8.48658 118.512 8.811 118.596 8.91239 118.875L12.2109 127.773C12.4136 128.31 12.3798 128.945 12.1298 129.524C11.8932 130.068 11.224 130.263 10.8523 129.893L0.585091 119.684C0.179541 119.279 0.233603 118.561 0.699986 118.107L2.99135 115.876C3.03191 115.841 3.07246 115.806 3.11978 115.778L3.53884 115.548Z" fill="#C4C4C4"/>
<path d="M40.7425 82.8672C40.7425 82.8672 41.8982 113.225 45.4333 127.542L41.5671 128.484L37.9847 116C37.9847 116 32.9086 107.953 34.889 99.6535L30.0156 82.8881L40.7425 82.8672Z" fill="#C4C4C4"/>
<path d="M39.9984 126.833C40.0255 126.463 40.3567 126.24 40.6541 126.407C41.2354 126.728 42.229 127.042 43.4659 126.582C44.7569 126.107 45.061 125.18 45.1084 124.559C45.1354 124.231 45.3787 124.001 45.6626 124.071L54.6658 126.184C55.2133 126.31 55.7068 126.686 56.0312 127.223C56.3421 127.725 56.1258 128.409 55.6189 128.527L41.6882 131.659C41.1407 131.784 40.5933 131.338 40.4851 130.682L39.9646 127.481C39.9579 127.426 39.9511 127.377 39.9579 127.321L39.9984 126.833Z" fill="#C4C4C4"/>
<path d="M19.1055 78.2865L18.5039 97.6183L45.6352 99.0131C45.6352 99.0131 42.6409 87.8897 40.2414 76.9824L19.1055 78.2865Z" fill="#C4C4C4"/>
<path d="M23.9234 27.6623C23.1326 27.5647 22.335 27.1253 21.747 26.7208C21.1657 26.3233 20.8615 25.612 20.9426 24.8937L22.5378 11.8105L28.0871 12.501L26.5189 25.4237C26.3432 26.9022 25.1942 27.8158 23.9234 27.6623Z" fill="#C4C4C4"/>
<path d="M26.9587 21.7894L25.039 18.1699C25.039 18.1699 23.2073 21.8243 26.7559 23.4422L26.9587 21.7894Z" fill="#C4C4C4"/>
<path d="M33.0011 13.1076C32.5482 17.006 29.1146 19.7886 25.3362 19.3144C21.5578 18.8471 18.8609 15.3044 19.3206 11.4059C19.7734 7.50751 23.2071 4.7249 26.9854 5.19913C30.7638 5.66639 33.454 9.20915 33.0011 13.1076Z" fill="#C4C4C4"/>
<path d="M27.4473 21.8868C25.6562 21.6636 24.3719 19.9829 24.5882 18.1278L25.156 13.2949L33.0034 13.0996L32.4491 17.8349C32.1517 20.3804 29.9144 22.1936 27.4473 21.8868Z" fill="#C4C4C4"/>
<path d="M32.616 14.6621L33.8462 17.1169C34.0152 17.5144 33.684 17.9329 33.2514 17.8771L31.4805 18.0026L32.616 14.6621Z" fill="#C4C4C4"/>
<path d="M26.0052 15.401L27.5126 15.2755L28.0938 12.4999C28.0938 12.4999 34.2717 13.6296 35.1977 10.6099C35.1977 10.6099 31.6289 0.455843 22.9907 4.41705C16.583 7.35308 18.4215 14.6199 20.5303 17.3189C21.2333 18.2185 21.5645 19.3831 21.4699 20.5338C21.4564 20.6733 21.4428 20.8198 21.4226 20.9732L23.9437 15.0593L26.0052 15.401Z" fill="#C4C4C4"/>
<path d="M24.0055 12.4436C24.9653 12.0182 26.0806 12.4785 26.4929 13.4757C26.9052 14.466 26.4591 15.6167 25.4925 16.0422C24.5327 16.4676 23.4174 16.0073 23.0051 15.01C22.5928 14.0128 23.039 12.869 24.0055 12.4436Z" fill="#C4C4C4"/>
<path d="M21.9243 6.55875C21.9243 6.55875 20.3832 -1.91461 13.4145 0.40074C5.73605 2.95321 9.12917 12.0961 8.82501 14.0976C8.47353 16.4408 7.2839 18.8817 3.99219 19.342C3.99219 19.342 13.1914 21.476 13.7119 14.8299C14.1512 9.23674 16.7197 6.96323 19.6464 9.11818L21.9243 6.55875Z" fill="#C4C4C4"/>
<path d="M20.9498 24.8927C20.9498 24.8927 19.3614 24.2581 18.5571 33.1568C17.7528 42.0556 17.2188 83.467 17.2188 83.467L42.2615 79.0664C42.2615 79.0664 37.7193 42.0347 26.5058 25.4157L20.9498 24.8927Z" fill="#C4C4C4"/>
<path d="M21.267 84.0619C21.4157 86.3843 23.3151 88.1417 25.5118 87.9883C27.7085 87.8348 29.378 85.8264 29.2293 83.504C29.0806 81.1817 27.1813 79.4243 24.9846 79.5777C22.7878 79.7311 21.1183 81.7396 21.267 84.0619Z" fill="#C4C4C4"/>
<path d="M23.448 81.5859H27.5508V73.6287H23.448V81.5859Z" fill="#C4C4C4"/>
<path d="M28.1908 38.6662V77.546H22.5469L20.5529 36.7762C20.4583 34.9351 21.2085 33.1219 22.6212 32.0479C24.2299 30.8205 26.3996 30.7159 27.9204 36.574C28.1029 37.2505 28.1908 37.9548 28.1908 38.6662Z" fill="#C4C4C4"/>
<path d="M28.1894 77.5469V75.0781H22.4238L22.5523 77.5469H28.1894Z" fill="#C4C4C4"/>
</svg>
