<svg width="70" height="132" viewBox="0 0 70 132" fill="none" xmlns="http://www.w3.org/2000/svg">
<path d="M19.9759 121.112L17.306 127.526L12.9531 125.215L15.6095 118.922L19.9759 121.112Z" fill="#FCC9A7"/>
<path d="M18.7713 127.145C18.7713 126.759 18.4401 126.509 18.1089 126.651C17.46 126.928 16.3921 127.165 15.1146 126.59C13.7898 125.996 13.5465 125.016 13.5397 124.373C13.5397 124.035 13.2964 123.779 12.9922 123.826L3.27931 125.225C2.69127 125.313 2.13702 125.651 1.74499 126.178C1.37324 126.672 1.54897 127.388 2.06943 127.55L16.5678 131.957C17.1356 132.133 17.7574 131.721 17.9264 131.058L18.7443 127.814C18.7578 127.76 18.7646 127.706 18.7646 127.652L18.7713 127.145Z" fill="#1F252A"/>
<path d="M59.3332 105.551L65.4164 108.903L62.6519 112.979L56.6836 109.654L59.3332 105.551Z" fill="#FCC9A7"/>
<path d="M65.1985 107.402C64.8133 107.362 64.5294 107.666 64.6308 108.004C64.8335 108.673 64.9552 109.768 64.2455 110.971C63.5087 112.221 62.5084 112.363 61.8663 112.289C61.5283 112.255 61.2512 112.465 61.2579 112.769L61.5891 122.576C61.6094 123.171 61.8865 123.759 62.3664 124.205C62.8126 124.624 63.5493 124.537 63.7656 124.03L69.7204 110.099C69.957 109.552 69.6123 108.889 68.9769 108.653L65.8406 107.483C65.7866 107.463 65.7325 107.449 65.6784 107.443L65.1985 107.402Z" fill="#1F252A"/>
<path d="M23.1934 59.1406L25.5388 74.1865L37.3944 95.4982L57.8071 113.248L62.5655 104.833L46.3773 89.7326L36.8807 59.3975L23.1934 59.1406Z" fill="#0C2C40"/>
<path d="M42.4556 58.2852C42.4556 58.2852 44.8145 62.7462 41.151 69.8704L29.7754 91.5808L21.1034 124.484L12.4922 121.477L18.6768 88.2012L29.6402 62.2325L23.1919 59.1436L42.4556 58.2852Z" fill="#0C2C40"/>
<path d="M17.6559 15.9507C19.1564 17.5932 21.7046 17.7081 23.3403 16.2143C24.9828 14.7138 25.0977 12.1656 23.604 10.5231C22.1034 8.88064 19.562 8.76573 17.9127 10.2595C16.2703 11.7668 16.1554 14.3083 17.6559 15.9507Z" fill="#FCC9A7"/>
<path d="M14.4395 18.0185L17.9407 13.8008L20.7322 16.6058L17.4473 20.6275L14.4395 18.0185Z" fill="#FCC9A7"/>
<path d="M22.3401 8.14732L19.1295 12.4461C18.7104 13.0071 18.7239 13.7844 19.1633 14.3252L21.7656 17.5358C22.3739 18.2861 23.5094 18.2928 24.1245 17.5561L27.7542 13.237C28.2544 12.6422 28.2273 11.7635 27.6933 11.1957L24.672 8.00536C24.0231 7.32268 22.9078 7.38353 22.3401 8.14732Z" fill="#1C2226"/>
<path d="M25.6597 23.2993L12.9322 29.6868L19.9212 18.9059L15.3115 14.918L0.738705 34.8846C-0.586092 36.6014 -0.0723947 39.1023 1.82693 40.1499C2.79349 40.6839 3.95606 40.738 4.96994 40.2919L23.8415 32.796L25.6597 23.2993Z" fill="#F7ECE7"/>
<path d="M21.1055 29.4297C21.1055 29.4297 23.3563 47.0779 23.194 59.143C23.194 59.143 29.9465 62.117 44.2624 57.7709L40.7206 24.9551L33.8262 22.6367L25.6611 23.2991L21.1055 29.4297Z" fill="#F7ECE7"/>
<path d="M27.9737 21.5835L28.1494 22.7326C28.1629 22.8137 28.1359 22.9015 28.0751 22.9624L26.3109 24.8346C26.1487 25.0036 25.8648 24.909 25.8378 24.6792L25.6553 23.3003C25.6418 23.2125 25.6756 23.1246 25.7432 23.0637L27.5073 21.4213C27.6763 21.2726 27.9466 21.3604 27.9737 21.5835Z" fill="#FCF3F0"/>
<path d="M30.3314 24.5516C32.4267 24.3826 33.9881 22.5373 33.8191 20.442L33.3122 14.3047L25.7148 14.9265L27.283 23.4093C27.5331 24.4908 28.2293 24.7206 30.3314 24.5516Z" fill="#FCC9A7"/>
<path d="M33.5682 16.4494C33.5682 16.4494 31.9325 21.0997 28.6138 20.5252C25.5654 19.998 25.7141 14.9219 25.7141 14.9219L33.5682 16.4494Z" fill="#F4BE9A"/>
<path d="M29.1432 18.8375L29.8191 18.7632C33.1852 18.3982 35.6252 15.3701 35.2602 12.004L34.8479 8.1648C34.4829 4.79873 31.4548 2.35866 28.0887 2.72365L27.4128 2.79801C24.0468 3.163 21.6067 6.19112 21.9717 9.55718L22.384 13.3964C22.749 16.7692 25.7771 19.2025 29.1432 18.8375Z" fill="#C4C4C4"/>
<path d="M29.1432 18.8375L29.8191 18.7632C33.1852 18.3982 35.6252 15.3701 35.2602 12.004L34.8479 8.1648C34.4829 4.79873 31.4548 2.35866 28.0887 2.72365L27.4128 2.79801C24.0468 3.163 21.6067 6.19112 21.9717 9.55718L22.384 13.3964C22.749 16.7692 25.7771 19.2025 29.1432 18.8375Z" fill="#FCC9A7"/>
<path d="M35.1246 10.7881C34.665 10.7408 32.7386 12.2008 32.2384 11.5654C31.549 10.6867 30.9204 9.08481 31.8126 7.42206C31.9613 7.14493 32.0019 6.8205 31.9072 6.51633C31.7315 5.96884 31.2584 5.33348 29.9538 5.7931C27.8653 6.52985 23.1676 8.89555 21.809 5.5092C20.0922 1.24417 33.597 2.43379 33.597 2.43379L36.6725 6.88131L35.3544 13.2214L35.1246 10.7881Z" fill="#1C2226"/>
<path d="M33.2451 11.4308C33.3735 12.6339 34.4549 13.5058 35.6581 13.3706C36.8612 13.2422 37.7331 12.1607 37.598 10.9576C37.4695 9.75447 36.3881 8.88254 35.1849 9.01773C33.9818 9.15291 33.1166 10.2276 33.2451 11.4308Z" fill="#FCC9A7"/>
<path d="M29.6431 25.8553L31.3667 52.4256L28.1561 55.4402L26.25 52.5203L28.1561 25.3281L29.6431 25.8553Z" fill="#0C2C40"/>
<path d="M27.0723 24.0225L27.3359 23.6575L27.2683 23.3398H31.0669L31.3643 24.3334L28.8364 26.564L27.0723 24.0225Z" fill="#0C2C40"/>
<path d="M33.5758 20.0829L29.9799 22.5297C29.5743 22.8068 29.5203 23.3881 29.8717 23.7328L32.6971 26.5108C33.0148 26.8218 33.5352 26.8083 33.8326 26.4703L36.6782 23.2732C36.9553 22.9623 36.9418 22.4824 36.6444 22.1917L34.5626 20.1572C34.299 19.9071 33.8867 19.8733 33.5758 20.0829Z" fill="#FCF3F0"/>
<path d="M18.3393 21.346L12.959 18.1016" stroke="#EADDD8" stroke-width="0.7599" stroke-miterlimit="10" stroke-linecap="round" stroke-linejoin="round"/>
<path d="M28.1409 46.8272L26.2551 66.9898C26.1808 67.7468 26.7012 68.4362 27.4515 68.5849L50.5746 73.0054C51.4262 73.1676 52.2306 72.5728 52.3252 71.7144L54.4408 52.5522C54.5219 51.8087 54.0353 51.1192 53.3053 50.9435L29.9524 45.5294C29.0804 45.3199 28.2288 45.935 28.1409 46.8272Z" fill="#AFAFAF"/>
<path d="M29.7824 47.1871L27.8966 67.3497C27.829 68.1067 28.3427 68.7961 29.093 68.9448L52.2161 73.3653C53.0677 73.5275 53.8721 72.9327 53.9667 72.0743L56.0823 52.9121C56.1634 52.1686 55.6768 51.4791 54.9468 51.3034L31.5939 45.8826C30.7152 45.6798 29.8635 46.2949 29.7824 47.1871Z" fill="#D1D1D1"/>
<path d="M38.5107 65.7374C36.652 64.0341 33.759 64.1625 32.0557 66.0213C30.3524 67.88 30.4808 70.773 32.3396 72.4763C34.1984 74.1796 37.0913 74.0511 38.7946 72.1924C40.4979 70.3268 40.3695 67.4407 38.5107 65.7374Z" fill="#FCC9A7"/>
<path d="M41.9385 63.0725L38.4102 68.196L34.9766 65.303L38.275 60.4297L41.9385 63.0725Z" fill="#FCC9A7"/>
<path d="M40.7269 24.9531C40.7269 24.9531 45.8977 25.4736 47.3982 33.9293L53.3463 46.2851C53.5085 46.8258 53.6167 47.38 53.6708 47.9343L41.1595 65.9069L35.5156 62.5611L45.6341 46.3391L39.49 36.6127L40.7269 24.9531Z" fill="#F7ECE7"/>
<path d="M37.3535 60.1367L43.0515 63.1919" stroke="#EADDD8" stroke-width="0.7599" stroke-miterlimit="10" stroke-linecap="round" stroke-linejoin="round"/>
<path d="M42.4967 41.3792L38.8535 35.0391" stroke="#EADDD8" stroke-width="0.7599" stroke-miterlimit="10" stroke-linecap="round" stroke-linejoin="round"/>
<path d="M23.1991 7.01602C20.6171 5.84668 21.1578 2.83209 21.7459 1.87905C21.7459 1.87905 21.8608 3.5756 23.0166 3.18357C23.0166 3.18357 22.8611 0.655639 26.2475 0C26.2475 0 24.997 2.27108 29.4513 1.83849C34.9195 1.30452 35.2372 4.76521 34.933 9.06404L33.2567 7.86091L31.959 4.86661H27.5317L23.1991 7.01602Z" fill="#1C2226"/>
</svg>
