<svg width="32" height="33" viewBox="0 0 32 33" fill="none" xmlns="http://www.w3.org/2000/svg">
<mask id="mask0_130_7257" style="mask-type:luminance" maskUnits="userSpaceOnUse" x="1" y="2" width="30" height="29">
<path d="M15.9994 29.8337C17.7506 29.8359 19.4851 29.4921 21.1031 28.8219C22.7211 28.1517 24.1906 27.1683 25.4274 25.9283C26.6673 24.6916 27.6507 23.222 28.3209 21.6041C28.9911 19.9861 29.335 18.2516 29.3327 16.5003C29.3349 14.7491 28.9911 13.0146 28.3209 11.3966C27.6506 9.77865 26.6673 8.30907 25.4274 7.07234C24.1906 5.83235 22.7211 4.849 21.1031 4.17879C19.4851 3.50858 17.7506 3.16473 15.9994 3.167C14.2481 3.16477 12.5136 3.50864 10.8956 4.17884C9.27768 4.84905 7.8081 5.83238 6.57136 7.07234C5.33141 8.30907 4.34807 9.77865 3.67787 11.3966C3.00766 13.0146 2.66379 14.7491 2.66603 16.5003C2.66376 18.2516 3.00761 19.9861 3.67782 21.6041C4.34803 23.222 5.33138 24.6916 6.57136 25.9283C7.8081 27.1683 9.27768 28.1516 10.8956 28.8218C12.5136 29.492 14.2481 29.8359 15.9994 29.8337Z" fill="white" stroke="white" stroke-width="2" stroke-linejoin="round"/>
<path d="M10.666 16.5L14.666 20.5L22.666 12.5" stroke="black" stroke-width="2" stroke-linecap="round" stroke-linejoin="round"/>
</mask>
<g mask="url(#mask0_130_7257)">
<path d="M0 0.5H32V32.5H0V0.5Z" fill="#007D00"/>
</g>
</svg>
