<svg width="23" height="18" viewBox="0 0 23 18" fill="none" xmlns="http://www.w3.org/2000/svg">
<g clip-path="url(#clip0_16_842)">
<path d="M21.1394 7.94101C21.7009 8.52695 21.7009 9.47851 21.1394 10.0645L13.9519 17.5645C13.3904 18.1504 12.4785 18.1504 11.9169 17.5645C11.3554 16.9785 11.3554 16.027 11.9169 15.441L16.6562 10.5004H2.87417C2.07905 10.5004 1.43667 9.83008 1.43667 9.00039C1.43667 8.1707 2.07905 7.50039 2.87417 7.50039L16.6562 7.50039L11.9214 2.55976C11.3599 1.97383 11.3599 1.02226 11.9214 0.436325C12.483 -0.149612 13.3949 -0.149612 13.9564 0.436325L21.1439 7.93633L21.1394 7.94101Z" fill="#2D85C5"/>
</g>
<defs>
<clipPath id="clip0_16_842">
<rect width="18" height="23" fill="white" transform="matrix(0 -1 -1 0 23 18)"/>
</clipPath>
</defs>
</svg>
