<svg width="43" height="43" viewBox="0 0 43 43" fill="none" xmlns="http://www.w3.org/2000/svg">
<path d="M27.2861 25.6326L27.2861 16.7938C27.2825 16.6293 27.2464 16.4671 27.18 16.3165C27.0532 16.0129 26.8118 15.7716 26.5083 15.6448C26.3577 15.5783 26.1955 15.5423 26.031 15.5387L17.1921 15.5387C17.0273 15.5387 16.8641 15.5712 16.7118 15.6342C16.5595 15.6973 16.4212 15.7898 16.3046 15.9063C16.0692 16.1417 15.937 16.4609 15.937 16.7938C15.937 17.1267 16.0692 17.4459 16.3046 17.6813C16.54 17.9167 16.8592 18.0489 17.1921 18.0489L23.0169 18.0401L16.3082 24.7488C16.0738 24.9832 15.9421 25.3011 15.9421 25.6326C15.9421 25.9642 16.0738 26.2821 16.3082 26.5165C16.5427 26.751 16.8606 26.8826 17.1921 26.8826C17.5236 26.8826 17.8416 26.751 18.076 26.5165L24.7847 19.8079L24.7758 25.6326C24.7752 25.7977 24.8072 25.9612 24.87 26.1138C24.9328 26.2663 25.0253 26.405 25.1419 26.5217C25.2586 26.6383 25.3973 26.7308 25.5498 26.7936C25.7024 26.8564 25.8659 26.8884 26.031 26.8878C26.196 26.8884 26.3595 26.8564 26.5121 26.7936C26.6647 26.7308 26.8033 26.6383 26.92 26.5217C27.0366 26.405 27.1291 26.2663 27.1919 26.1138C27.2547 25.9612 27.2867 25.7977 27.2861 25.6326Z" fill="white"/>
</svg>
