<svg width="38" height="38" viewBox="0 0 38 38" fill="none" xmlns="http://www.w3.org/2000/svg">
<path d="M0 26.6V3.8C0 1.71 1.71 0 3.8 0H26.6C28.69 0 30.4 1.71 30.4 3.8V26.6C30.4 28.69 28.69 30.4 26.6 30.4H3.8C1.71 30.4 0 28.69 0 26.6ZM20.14 20.007L17.043 24.149L12.141 18.031C12.052 17.92 11.9392 17.8305 11.8109 17.769C11.6827 17.7074 11.5422 17.6755 11.4 17.6755C11.2578 17.6755 11.1173 17.7074 10.9891 17.769C10.8608 17.8305 10.748 17.92 10.659 18.031L5.035 25.061C4.541 25.688 4.978 26.6 5.776 26.6H24.7C24.8764 26.6 25.0494 26.5509 25.1994 26.4581C25.3495 26.3654 25.4708 26.2327 25.5497 26.0749C25.6286 25.9171 25.662 25.7404 25.6462 25.5647C25.6303 25.389 25.5659 25.2211 25.46 25.08L21.66 20.007C21.28 19.513 20.52 19.513 20.14 20.007ZM38 9.5V34.2C38 36.29 36.29 38 34.2 38H9.5C8.455 38 7.6 37.145 7.6 36.1C7.6 35.055 8.455 34.2 9.5 34.2H32.3C33.345 34.2 34.2 33.345 34.2 32.3V9.5C34.2 8.455 35.055 7.6 36.1 7.6C37.145 7.6 38 8.455 38 9.5Z" fill="#C4C4C4"/>
</svg>
