<svg width="25" height="24" viewBox="0 0 25 24" fill="none" xmlns="http://www.w3.org/2000/svg">
<path d="M7.5 17.0134L11.913 16.9984L21.545 7.45839C21.923 7.08039 22.131 6.57839 22.131 6.04439C22.131 5.51039 21.923 5.00839 21.545 4.63039L19.959 3.04439C19.203 2.28839 17.884 2.29239 17.134 3.04139L7.5 12.5834V17.0134ZM18.545 4.45839L20.134 6.04139L18.537 7.62339L16.951 6.03839L18.545 4.45839ZM9.5 13.4174L15.53 7.44439L17.116 9.03039L11.087 15.0014L9.5 15.0064V13.4174Z" fill="#007D00"/>
<path d="M5.5 21H19.5C20.603 21 21.5 20.103 21.5 19V10.332L19.5 12.332V19H8.658C8.632 19 8.605 19.01 8.579 19.01C8.546 19.01 8.513 19.001 8.479 19H5.5V5H12.347L14.347 3H5.5C4.397 3 3.5 3.897 3.5 5V19C3.5 20.103 4.397 21 5.5 21Z" fill="#007D00"/>
</svg>
