<svg width="16" height="16" viewBox="0 0 16 16" fill="none" xmlns="http://www.w3.org/2000/svg">
<path d="M12.6673 8L10.0007 5.33333M12.6673 8L10.0007 10.6667M12.6673 8H6.00065M9.33398 14C8.54605 14 7.76584 13.8448 7.03788 13.5433C6.30993 13.2417 5.6485 12.7998 5.09134 12.2426C4.53419 11.6855 4.09224 11.0241 3.79071 10.2961C3.48918 9.56815 3.33398 8.78793 3.33398 8C3.33398 7.21207 3.48918 6.43185 3.79071 5.7039C4.09224 4.97595 4.53419 4.31451 5.09134 3.75736C5.6485 3.20021 6.30993 2.75825 7.03788 2.45672C7.76584 2.15519 8.54605 2 9.33398 2" stroke="#333333" stroke-width="1.33333" stroke-linecap="round" stroke-linejoin="round"/>
</svg>
