<svg width="16" height="16" viewBox="0 0 16 16" fill="none" xmlns="http://www.w3.org/2000/svg">
<path d="M2.66602 12.0007C2.66602 11.2934 2.94697 10.6151 3.44706 10.115C3.94716 9.61494 4.62544 9.33398 5.33268 9.33398H10.666C11.3733 9.33398 12.0515 9.61494 12.5516 10.115C13.0517 10.6151 13.3327 11.2934 13.3327 12.0007C13.3327 12.3543 13.1922 12.6934 12.9422 12.9435C12.6921 13.1935 12.353 13.334 11.9993 13.334H3.99935C3.64573 13.334 3.30659 13.1935 3.05654 12.9435C2.80649 12.6934 2.66602 12.3543 2.66602 12.0007Z" stroke="white" stroke-width="1.33333" stroke-linejoin="round"/>
<path d="M8 6.66699C9.10457 6.66699 10 5.77156 10 4.66699C10 3.56242 9.10457 2.66699 8 2.66699C6.89543 2.66699 6 3.56242 6 4.66699C6 5.77156 6.89543 6.66699 8 6.66699Z" stroke="white" stroke-width="1.33333"/>
</svg>
