<svg width="32" height="33" viewBox="0 0 32 33" fill="none" xmlns="http://www.w3.org/2000/svg">
<path d="M15.9993 3.16699C23.3633 3.16699 29.3327 9.13633 29.3327 16.5003C29.3327 23.8643 23.3633 29.8337 15.9993 29.8337C8.63535 29.8337 2.66602 23.8643 2.66602 16.5003C2.66602 9.13633 8.63535 3.16699 15.9993 3.16699ZM13.1713 11.7857C12.932 11.544 12.6093 11.4029 12.2693 11.3914C11.9293 11.3799 11.5978 11.4987 11.3426 11.7236C11.0874 11.9485 10.9277 12.2624 10.8964 12.6012C10.8651 12.9399 10.9644 13.2778 11.174 13.5457L11.286 13.6723L14.1127 16.499L11.286 19.3283C11.0443 19.5677 10.9033 19.8904 10.8918 20.2304C10.8802 20.5704 10.9991 20.9019 11.224 21.1571C11.4489 21.4123 11.7628 21.5719 12.1015 21.6033C12.4402 21.6346 12.7781 21.5353 13.046 21.3257L13.1713 21.215L15.9993 18.3857L18.8274 21.215C19.0667 21.4567 19.3894 21.5977 19.7294 21.6092C20.0694 21.6208 20.4009 21.5019 20.6561 21.277C20.9113 21.0521 21.071 20.7382 21.1023 20.3995C21.1336 20.0608 21.0343 19.7229 20.8247 19.455L20.714 19.3283L17.8847 16.5003L20.714 13.6723C20.9557 13.4329 21.0967 13.1102 21.1083 12.7703C21.1198 12.4303 21.001 12.0988 20.7761 11.8436C20.5512 11.5883 20.2372 11.4287 19.8985 11.3974C19.5598 11.3661 19.2219 11.4654 18.954 11.675L18.8274 11.7857L15.9993 14.615L13.1713 11.7857Z" fill="#940026"/>
</svg>
