<svg width="47" height="35" viewBox="0 0 47 35" fill="none" xmlns="http://www.w3.org/2000/svg">
<g clip-path="url(#clip0_16_863)">
<path d="M17.8499 0.000797944C17.5875 0.0298518 17.3369 0.101547 17.116 0.210798C17.116 0.210798 14.8292 1.28234 12.3708 2.44137C9.91231 3.59907 7.17727 4.87522 6.55181 5.13368C6.51323 5.14615 6.47524 5.15962 6.43792 5.17407C4.16746 6.21734 3.69565 7.92157 3.61431 8.87734C3.60888 8.92176 3.61431 8.95811 3.61431 9.00522C3.59442 9.3633 3.61431 9.59349 3.61431 9.59349V27.1783C3.61431 29.7333 7.61473 30.9623 11.4109 30.9623C12.6763 30.9623 13.9417 30.8102 15.0263 30.541C15.7493 30.2718 16.2682 29.7333 16.2682 29.1948V15.0602C16.2682 11.9641 17.172 10.5102 19.8835 9.29868C20.6066 9.02945 28.1881 5.13234 28.1881 5.13234C28.5496 4.86311 28.922 4.31657 28.922 3.91272V3.78618C28.922 3.24772 28.5605 2.8358 28.0182 2.56657C27.4758 2.29734 26.7528 2.29734 26.2105 2.56657C26.0297 2.70118 15.0028 8.22984 12.6528 9.17214C10.3028 10.2491 8.11004 10.5089 7.56773 9.97041C7.39961 9.84522 7.25319 9.46157 7.22969 9.08734V9.00253C7.2315 8.63637 7.35804 7.94714 8.3595 7.48811C9.37542 7.06676 11.8972 5.86734 14.3484 4.71234C15.3842 4.22368 15.5125 4.17118 16.3242 3.78618C16.431 4.11504 16.7003 4.40188 17.0783 4.58959C17.4563 4.77731 17.9153 4.85214 18.3641 4.79919C18.8128 4.74623 19.2184 4.56938 19.4999 4.30384C19.7815 4.03829 19.9184 3.70353 19.8835 3.36618V1.34695C19.8856 1.15508 19.8325 0.965099 19.7278 0.789751C19.6232 0.614403 19.4694 0.457739 19.2769 0.33026C19.0843 0.202782 18.8573 0.107436 18.6112 0.050614C18.3651 -0.00620807 18.1055 -0.023193 17.8499 0.000797944ZM32.3114 4.71234C32.024 4.74794 31.7523 4.83476 31.5197 4.96541C31.5197 4.96541 22.4197 9.52484 20.8434 10.307C20.8243 10.321 20.8056 10.3354 20.7874 10.35C19.4786 11.081 18.7031 11.9506 18.3578 12.7462C18.1644 13.195 18.0692 13.6641 18.0758 14.1354V14.5568C18.0732 14.5985 18.0732 14.6402 18.0758 14.682V30.9623C18.0758 33.52 22.0311 35.0008 25.6465 35.0008C27.2734 35.0008 28.7412 34.7396 29.8258 34.2012C31.9951 33.2589 42.4797 27.177 42.4797 27.177C43.022 26.9077 43.3835 26.5281 43.3835 26.1243V8.62426C43.3835 7.95118 43.0328 7.54734 42.3098 7.27811C41.7675 7.00888 40.8763 7.13541 40.334 7.40464C37.4417 9.02003 29.6559 13.5808 27.8482 14.3885C25.3175 15.4654 22.9331 15.7346 22.0293 15.0616C21.6677 14.7923 21.6912 14.5393 21.6912 14.1354C21.7021 13.9039 21.7364 13.7046 21.8051 13.5458C21.9063 13.3116 22.1124 13.0235 22.8771 12.5793C22.9132 12.5577 22.8952 12.5591 22.9331 12.5375C24.2401 11.8873 28.2369 9.85868 30.8436 8.53945C30.9913 8.83449 31.2731 9.08164 31.6402 9.23791C32.0073 9.39419 32.4363 9.44971 32.8526 9.3948C33.269 9.3399 33.6463 9.17806 33.919 8.93742C34.1916 8.69678 34.3424 8.39258 34.3451 8.07772V6.05849C34.3471 5.86662 34.294 5.67664 34.1894 5.50129C34.0847 5.32594 33.931 5.16928 33.7384 5.0418C33.5458 4.91432 33.3189 4.81897 33.0728 4.76215C32.8266 4.70533 32.5671 4.68835 32.3114 4.71234ZM39.7682 14.5568V17.2491L30.7297 22.4641V19.7718L39.7682 14.5568Z" fill="#2D85C5"/>
</g>
<defs>
<clipPath id="clip0_16_863">
<rect width="47" height="35" fill="white"/>
</clipPath>
</defs>
</svg>
